<?xml version="1.0" encoding="UTF-8"?>
<svg width="512pt" height="512pt" version="1.1" viewBox="0 0 512 512" xmlns="http://www.w3.org/2000/svg">
 <path d="m362.71 42.668h-213.38c-58.816 0-106.66 47.848-106.66 106.64v213.4c0 58.793 47.848 106.62 106.66 106.62h213.38c58.797 0 106.62-47.828 106.62-106.62v-213.4c0-58.797-47.828-106.64-106.62-106.64zm-177.88 232.11c4.5664 4.0547 7.168 9.8555 7.168 15.938v51.945c0 4.0117 3.3711 7.3828 7.3828 7.3828h12.48c11.797 0 21.332 9.5586 21.332 21.332 0 11.777-9.5352 21.332-21.332 21.332h-12.48c-27.586 0-50.051-22.465-50.051-50.047v-42.367l-32.172-28.609c-4.5664-4.0312-7.168-9.8359-7.168-15.938 0-6.1016 2.6016-11.902 7.168-15.957l32.172-28.586v-41.855c0-27.586 22.465-50.047 50.047-50.047h12.48c11.797 0 21.332 9.5586 21.332 21.332 0 11.777-9.5352 21.332-21.332 21.332h-12.477c-4.0117 0-7.3828 3.3711-7.3828 7.3828v51.457c0 6.1016-2.6016 11.902-7.168 15.957l-21.398 19.008zm209.98-3.0938-32.172 28.609v42.367c0 27.586-22.465 50.047-50.07 50.047h-12.457c-11.797 0-21.332-9.5586-21.332-21.332 0-11.777 9.5352-21.332 21.332-21.332h12.457c4.0117 0 7.4023-3.3906 7.4023-7.3828v-51.945c0-6.1016 2.6016-11.902 7.168-15.938l21.398-19.031-21.398-19.008c-4.5664-4.0547-7.168-9.8555-7.168-15.957l0.003907-51.434c0-4.0117-3.3906-7.3828-7.4023-7.3828h-12.457c-11.797 0-21.332-9.5586-21.332-21.332 0-11.777 9.5352-21.332 21.332-21.332h12.457c27.605 0 50.07 22.465 50.07 50.047l-0.003907 41.855 32.172 28.586c4.5664 4.0547 7.168 9.8555 7.168 15.957 0 6.1016-2.6016 11.883-7.168 15.938z" fill="#f4f4f4"/>
</svg>
