<?xml version="1.0" encoding="UTF-8"?>
<svg width="512pt" height="512pt" version="1.1" viewBox="0 0 512 512" xmlns="http://www.w3.org/2000/svg">
 <path d="m213.86 207.95h36.773c13.926-0.35547 25.977 7.8242 24.145 21.691l-11.969 91.195c-2.0703 15.797 21.664 19.91 29.574 0 4.8242-12.211 28.23-6.9883 23.133 12.023-4.2656 15.918-28.172 33.07-43.074 33.07h-14.668c-21.93-0.85156-40.836-20.473-37.398-45.102l10.258-73.328-22.164-6.6328c-19.555-5.2422-15.609-33.57 5.3906-32.918zm40.949-79.996c16.004 0 28.98 12.793 28.98 28.586 0 15.789-12.977 28.594-28.98 28.594-15.996 0-28.973-12.805-28.973-28.594-0.003907-15.793 12.977-28.559 28.973-28.586zm4.1758-68.449c-19.551-0.4375-38.574 1.9922-56.594 6.9141-72.09 19.762-128 79.613-136.68 151.73-8.7148 72.117 9.8438 124.12 44.684 162.61l-16.773 47.547c-5.7656 16.359 4.5352 29.062 20.656 22.457l58.848-24.113c18.312 8.4414 38.281 14.258 59.527 16.805 105.97 12.766 201.18-59.438 214.28-168.21 13.125-108.75-62.23-201.57-168.21-214.34-6.6406-0.80469-13.215-1.2461-19.742-1.3984z" fill="#f4f4f4" fill-rule="evenodd"/>
</svg>
