<?xml version="1.0" encoding="UTF-8"?>
<svg width="512pt" height="512pt" version="1.1" viewBox="0 0 512 512" xmlns="http://www.w3.org/2000/svg">
 <g fill="#f4f4f4">
  <path d="m224.94 198.75c1.7734 1.7773 2.4883 4.3516 1.8828 6.7891l-6.3906 25.566c-0.69531 2.7734 0.33594 5.6992 2.6172 7.4258 2.2812 1.7305 5.375 1.9297 7.8594 0.51172l21.922-12.535c2.1953-1.2578 4.8945-1.2578 7.0898 0l21.926 12.535c2.4844 1.418 5.5781 1.2188 7.8594-0.51172 2.2812-1.7266 3.3086-4.6523 2.6133-7.4258l-6.3867-25.566c-0.60938-2.4336 0.10156-5.0117 1.875-6.7852l13.52-13.523v-0.003906c2.043-2.043 2.6562-5.1172 1.5508-7.7852-1.1055-2.6719-3.7109-4.4141-6.6016-4.4141h-18.047c-2.8594 0-5.4414-1.7031-6.5664-4.3281l-8.7227-20.359v-0.003907c-1.125-2.625-3.707-4.332-6.5664-4.332s-5.4414 1.707-6.5664 4.332l-8.7188 20.359v0.003906c-1.125 2.625-3.707 4.3281-6.5664 4.3281h-18.047c-2.8906 0.003906-5.4922 1.7422-6.5977 4.4141-1.1055 2.668-0.49609 5.7422 1.5469 7.7852z"/>
  <path d="m108 396h296v24h-296z"/>
  <path d="m451.04 180h-97.117c-6.1758-30.34-26.066-56.105-53.855-69.758-27.793-13.656-60.34-13.656-88.133 0-27.789 13.652-47.68 39.418-53.855 69.758h-97.117c-6.6172 0.007812-12.961 2.6406-17.641 7.3203-4.6797 4.6797-7.3125 11.023-7.3203 17.641v246.08c0.007812 6.6172 2.6406 12.961 7.3203 17.641 4.6797 4.6797 11.023 7.3125 17.641 7.3203h390.08c6.6172-0.007812 12.961-2.6406 17.641-7.3203 4.6797-4.6797 7.3125-11.023 7.3203-17.641v-246.08c-0.007812-6.6172-2.6406-12.961-7.3203-17.641-4.6797-4.6797-11.023-7.3125-17.641-7.3203zm-67.039 148c4.2422 0 8.3125 1.6875 11.312 4.6875s4.6875 7.0703 4.6875 11.312-1.6875 8.3125-4.6875 11.312-7.0703 4.6875-11.312 4.6875-8.3125-1.6875-11.312-4.6875-4.6875-7.0703-4.6875-11.312c0.011719-4.2383 1.7031-8.3008 4.6992-11.301 3-2.9961 7.0625-4.6875 11.301-4.6992zm-192 0c4.2422 0 8.3125 1.6875 11.312 4.6875s4.6875 7.0703 4.6875 11.312-1.6875 8.3125-4.6875 11.312-7.0703 4.6875-11.312 4.6875-8.3125-1.6875-11.312-4.6875-4.6875-7.0703-4.6875-11.312c0.011719-4.2383 1.7031-8.3008 4.6992-11.301 3-2.9961 7.0625-4.6875 11.301-4.6992zm64 0c4.2422 0 8.3125 1.6875 11.312 4.6875s4.6875 7.0703 4.6875 11.312-1.6875 8.3125-4.6875 11.312-7.0703 4.6875-11.312 4.6875-8.3125-1.6875-11.312-4.6875-4.6875-7.0703-4.6875-11.312c0.011719-4.2383 1.7031-8.3008 4.6992-11.301 3-2.9961 7.0625-4.6875 11.301-4.6992zm64 0c4.2422 0 8.3125 1.6875 11.312 4.6875s4.6875 7.0703 4.6875 11.312-1.6875 8.3125-4.6875 11.312-7.0703 4.6875-11.312 4.6875-8.3125-1.6875-11.312-4.6875-4.6875-7.0703-4.6875-11.312c0.011719-4.2383 1.7031-8.3008 4.6992-11.301 3-2.9961 7.0625-4.6875 11.301-4.6992zm-64-204c21.395-0.046875 41.82 8.9023 56.285 24.664 14.465 15.762 21.637 36.879 19.762 58.188-1.8789 21.312-12.629 40.852-29.629 53.84-16.996 12.988-38.676 18.23-59.73 14.445-21.055-3.7852-39.547-16.254-50.953-34.348-11.41-18.098-14.68-40.16-9.0156-60.789 4.375-16.082 13.922-30.281 27.164-40.398 13.246-10.121 29.449-15.605 46.117-15.602zm-128 204c4.2422 0 8.3125 1.6875 11.312 4.6875s4.6875 7.0703 4.6875 11.312-1.6875 8.3125-4.6875 11.312-7.0703 4.6875-11.312 4.6875-8.3125-1.6875-11.312-4.6875-4.6875-7.0703-4.6875-11.312c0.011719-4.2383 1.7031-8.3008 4.6992-11.301 3-2.9961 7.0625-4.6875 11.301-4.6992zm300 104c-0.046875 6.6094-5.3906 11.953-12 12h-320c-6.6055-0.046875-11.953-5.3945-12-12v-48c0.046875-6.6055 5.3945-11.953 12-12h320c6.6094 0.046875 11.953 5.3906 12 12z"/>
  <path d="m244 48v24c0 6.6289 5.3711 12 12 12s12-5.3711 12-12v-24c0-6.6289-5.3711-12-12-12s-12 5.3711-12 12z"/>
  <path d="m170 59.047c-2.7578 1.5898-4.7695 4.2109-5.5898 7.2852-0.82422 3.0742-0.39453 6.3516 1.1992 9.1055l12 20.781c1.5859 2.7656 4.207 4.7891 7.2852 5.6211 3.082 0.82812 6.3633 0.39844 9.125-1.1953s4.7773-4.2227 5.5977-7.3047c0.82031-3.082 0.37891-6.3633-1.2266-9.1211l-12-20.781c-3.3164-5.7383-10.652-7.7031-16.391-4.3906z"/>
  <path d="m123.44 117.61c-5.7344-3.2852-13.051-1.3125-16.355 4.4102-3.3047 5.7266-1.3594 13.047 4.3555 16.371l20.781 12c2.7578 1.6055 6.0391 2.0469 9.1211 1.2266 3.082-0.82031 5.7109-2.8359 7.3047-5.5977s2.0234-6.043 1.1953-9.125c-0.83203-3.0781-2.8555-5.6992-5.6211-7.2852z"/>
  <path d="m325.61 63.438-12 20.781c-1.6055 2.7578-2.0469 6.0391-1.2266 9.1211 0.82031 3.082 2.8359 5.7109 5.5977 7.3047s6.043 2.0234 9.125 1.1953c3.0781-0.83203 5.6992-2.8555 7.2852-5.6211l12-20.781c3.2852-5.7344 1.3125-13.051-4.4102-16.355-5.7266-3.3047-13.047-1.3594-16.371 4.3555z"/>
  <path d="m388.56 117.61-20.781 12c-2.7656 1.5859-4.7891 4.207-5.6211 7.2852-0.82812 3.082-0.39844 6.3633 1.1953 9.125s4.2227 4.7773 7.3047 5.5977c3.082 0.82031 6.3633 0.37891 9.1211-1.2266l20.781-12c2.7656-1.5859 4.7891-4.207 5.6211-7.2852 0.82812-3.082 0.39844-6.3633-1.1953-9.125s-4.2227-4.7773-7.3047-5.5977c-3.082-0.82031-6.3633-0.37891-9.1211 1.2266z"/>
 </g>
</svg>
