<?xml version="1.0" encoding="UTF-8"?>
<svg width="1200pt" height="1200pt" version="1.1" viewBox="0 0 1200 1200" xmlns="http://www.w3.org/2000/svg">
 <path d="m600 120c-298.23 0-540 214.9-540 480s241.77 480 540 480c118.84 0 228.64-34.203 317.82-92.027l222.18 92.027-89.328-215.65c56.406-75.82 89.328-166.65 89.328-264.35 0-265.1-241.77-480-540-480zm-207 660v-60s60-26.918 60-60c-66.273 0-120-53.727-120-120s53.727-120 120-120 120 53.727 120 120c0 120-90 240-180 240zm294 0v-60s60-26.918 60-60c-66.273 0-120-53.727-120-120s53.727-120 120-120 120 53.727 120 120c0 120-90 240-180 240z" fill="#f4f4f4"/>
</svg>
