<?xml version="1.0" encoding="UTF-8"?>
<svg width="512pt" height="512pt" version="1.1" viewBox="0 0 512 512" xmlns="http://www.w3.org/2000/svg">
 <path d="m307.2 76.801c33.934 0 61.699 26.406 63.863 59.793l0.13672 4.207v102.76l22.836-17.281 1.5664-1.4258c22.469-19.43 55.621-19.711 79.309-1.7578l3.4766 2.8281 3.3242 3.1016c23.793 23.793 25.551 61.535 5.0117 85.223l-2.8047 3.0078-94.371 106.98c-19.383 22.754-40.523 34.891-63.434 36.406l-4.9375 0.16406h-103.57c-68.785 0-124.89-54.254-127.88-122.3l-0.125-5.6992v-140.8c0-35.348 28.652-64 64-64 4.7422 0 9.3633 0.51562 13.812 1.4961 5.3086-29.945 31.488-52.695 62.984-52.695 14.422 0 27.727 4.7656 38.426 12.812 10.672-8.0508 23.969-12.812 38.375-12.812zm0 51.199-2.3008 0.20703c-5.9688 1.082-10.5 6.3086-10.5 12.594v102.4l-0.17188 2.9844-0.50391 2.8867c-2.6523 11.309-12.805 19.73-24.922 19.73-12.121 0-22.27-8.4219-24.926-19.73l-0.50391-2.8867-0.17188-2.9844v-102.4l-0.20703-2.3008c-1.082-5.9727-6.3086-10.5-12.594-10.5-7.0664 0-12.797 5.7305-12.797 12.801v102.4l-0.17187 2.9844-0.57422 3.168c-2.293 9.2891-9.6562 16.582-18.984 18.773l-2.8867 0.50391-2.9844 0.17188-2.9844-0.17188-3.168-0.57422c-9.2891-2.2891-16.582-9.6562-18.773-18.984l-0.50391-2.8867-0.17187-2.9844v-51.199l-0.20313-2.3008-0.59766-2.1641c-1.5508-4.1719-5.2188-7.3164-9.6953-8.1289l-2.3008-0.20703-2.3008 0.20703-2.168 0.59375c-3.4766 1.2969-6.2383 4.0586-7.5312 7.5352l-0.59375 2.1641-0.20703 2.3008v140.8l0.12891 4.5117 0.40625 4.6211c4.1641 35.113 32.016 62.969 67.133 67.129l4.6172 0.40625 4.5156 0.13281h103.57l3.2422-0.20703 3.1797-0.61328 3.0859-1.0117c1.8125-0.72656 4.6328-2.8125 8.4609-6.2617l5.0781-4.793 9.4375-9.6445 7.1719-7.7031 85.785-97.148 1.2266-1.4961 0.875-1.625c0.96875-2.2695 1.1445-4.918 0.47656-7.5078l-0.875-2.4023-1.1133-1.918-1.7031-2.043-1.8008-1.5352-2.3398-1.3633c-3.2031-1.4688-6.7031-1.5586-9.6016-0.36719l-1.7227 0.91406-1.5234 1.2422-67.461 51.383-2.3438 1.5898-2.6953 1.418c-14.574 6.6055-31.973-2.0938-35.41-17.746l-0.45703-2.8438-0.14844-2.8281v-154.29l-0.20703-2.3008c-1.082-5.9727-6.3086-10.5-12.594-10.5zm-209.14-52.57c7.8281 11.773 4.6289 27.664-7.1445 35.492-23.039 15.316-37.82 40.703-39.773 68.301-0.99609 14.102-13.238 24.727-27.344 23.727-14.102-1-24.727-13.238-23.727-27.344 3.0703-43.418 26.242-83.219 62.496-107.32 11.777-7.8281 27.664-4.6289 35.492 7.1445z" fill="#f4f4f4"/>
</svg>
