<?xml version="1.0" encoding="UTF-8"?>
<svg width="1200pt" height="1200pt" version="1.1" viewBox="0 0 1200 1200" xmlns="http://www.w3.org/2000/svg">
 <g fill="#f4f4f4">
  <path d="m805.08 985.43h-67.969-163.12-196.52-169.57c-27.305 0-54.609 0.46875-81.914 0-0.9375 0-1.7578 0-2.5781-0.11719 4.6875 0.58594 9.375 1.2891 14.062 1.875-1.0547-0.11719-1.9922-0.35156-2.9297-0.70312 4.2188 1.7578 8.4375 3.5156 12.539 5.2734-1.4062-0.58594-2.5781-1.2891-3.8672-2.1094 3.5156 2.6953 7.1484 5.5078 10.664 8.2031-0.82031-0.58594-1.4062-1.2891-2.1094-2.1094 2.6953 3.5156 5.5078 7.1484 8.2031 10.664-0.9375-1.2891-1.5234-2.4609-2.1094-3.8672 1.7578 4.2188 3.5156 8.4375 5.2734 12.539-0.35156-0.9375-0.58594-1.9922-0.70312-2.9297 0.58594 4.6875 1.2891 9.375 1.875 14.062-0.46875-7.9688-0.11719-16.055-0.11719-24.023v-61.758-91.055-111.8-122.46-123.63-115.31-96.914-69.961c0-11.016-0.11719-21.914 0-32.93 0-0.9375 0-1.875 0.11719-2.9297-0.58594 4.6875-1.2891 9.375-1.875 14.062 0.11719-1.0547 0.35156-1.9922 0.70312-2.9297-1.7578 4.2188-3.5156 8.4375-5.2734 12.539 0.58594-1.4062 1.2891-2.5781 2.1094-3.8672-2.6953 3.5156-5.5078 7.1484-8.2031 10.664 0.58594-0.82031 1.2891-1.4062 2.1094-2.1094-3.5156 2.6953-7.1484 5.5078-10.664 8.2031 1.2891-0.9375 2.4609-1.5234 3.8672-2.1094-4.2188 1.7578-8.4375 3.5156-12.539 5.2734 0.9375-0.35156 1.9922-0.58594 2.9297-0.70312-4.6875 0.58594-9.375 1.2891-14.062 1.875 8.7891-0.46875 17.812-0.11719 26.602-0.11719h69.023 102.3 124.92 136.88 138.16 128.79 108.75 78.047c12.305 0 24.492-0.11719 36.797 0 1.0547 0 1.9922 0 3.0469 0.11719-4.6875-0.58594-9.375-1.2891-14.062-1.875 1.0547 0.11719 1.9922 0.35156 2.9297 0.70312-4.2188-1.7578-8.4375-3.5156-12.539-5.2734 1.4062 0.58594 2.5781 1.2891 3.8672 2.1094-3.5156-2.6953-7.1484-5.5078-10.664-8.2031 0.82031 0.58594 1.4062 1.2891 2.1094 2.1094-2.6953-3.5156-5.5078-7.1484-8.2031-10.664 0.9375 1.2891 1.5234 2.4609 2.1094 3.8672-1.7578-4.2188-3.5156-8.4375-5.2734-12.539 0.35156 0.9375 0.58594 1.9922 0.70312 2.9297-0.58594-4.6875-1.2891-9.375-1.875-14.062 0.46875 7.9688 0.11719 16.055 0.11719 24.023v61.758 91.055 111.8 122.46 123.63 115.31 96.914 69.961c0 11.016 0.11719 21.914 0 32.93 0 0.9375 0 1.875-0.11719 2.9297 0.58594-4.6875 1.2891-9.375 1.875-14.062-0.11719 1.0547-0.35156 1.9922-0.70312 2.9297 1.7578-4.2188 3.5156-8.4375 5.2734-12.539-0.58594 1.4062-1.2891 2.5781-2.1094 3.8672 2.6953-3.5156 5.5078-7.1484 8.2031-10.664-0.58594 0.82031-1.2891 1.4062-2.1094 2.1094 3.5156-2.6953 7.1484-5.5078 10.664-8.2031-1.2891 0.9375-2.4609 1.5234-3.8672 2.1094 4.2188-1.7578 8.4375-3.5156 12.539-5.2734-0.9375 0.35156-1.9922 0.58594-2.9297 0.70312 4.6875-0.58594 9.375-1.2891 14.062-1.875-9.2578 0.58594-18.75 0.11719-28.008 0.11719h-64.219-145.9-33.516c-13.477 0-27.773 5.8594-37.266 15.469-9.1406 9.1406-16.055 24.141-15.469 37.266 0.58594 13.594 5.0391 27.773 15.469 37.266 10.312 9.4922 22.969 15.469 37.266 15.469h69.141 129.14c23.906 0 47.812 0.70312 71.719 0 36.445-1.0547 65.508-29.414 66.211-66.211v-2.4609-14.648-63.047-98.086-121.17-132.42-131.84-119.3-94.922-58.594c0-3.9844 0.11719-7.9688 0-11.953-0.58594-37.266-29.18-66.328-66.562-67.266-9.7266-0.23438-19.57 0-29.414 0h-69.141-99.375-120.12-131.48-133.24-125.51-108.28-81.562-45.352-6.2109c-36.68 0.70312-65.156 29.883-66.094 66.328v2.6953 41.719 82.969 110.98 129.02 133.01 126.8 108.28 77.695c0 11.719-0.23437 23.555 0 35.273 0.70313 37.383 29.414 66.211 66.797 67.031 4.3359 0.11719 8.6719 0 13.008 0h67.617 107.81 129.26 132.3 116.72 82.617 30.117c13.477 0 27.773-5.8594 37.266-15.469 9.1406-9.1406 16.055-24.141 15.469-37.266-0.58594-13.594-5.0391-27.773-15.469-37.266-10.43-9.375-23.086-15.352-37.383-15.352z"/>
  <path d="m111.56 446.48h26.016 71.25 105 128.09 140.39 142.27 132.07 111.68 80.273c12.656 0 25.43 0.11719 38.086 0h1.6406c13.477 0 27.773-5.8594 37.266-15.469 9.1406-9.1406 16.055-24.141 15.469-37.266-0.58594-13.594-5.0391-27.773-15.469-37.266-10.312-9.4922-22.969-15.469-37.266-15.469h-26.016-71.25-105-128.09-140.39-142.27-132.07-111.68-80.273c-12.656 0-25.43-0.11719-38.086 0h-1.6406c-13.477 0-27.773 5.8594-37.266 15.469-9.1406 9.1406-16.055 24.141-15.469 37.266 0.58594 13.594 5.0391 27.773 15.469 37.266 10.312 9.4922 22.969 15.469 37.266 15.469z"/>
  <path d="m237.07 331.76c13.477 0 27.773-5.8594 37.266-15.469 9.1406-9.1406 16.055-24.141 15.469-37.266-0.58594-13.594-5.0391-27.773-15.469-37.266-10.312-9.4922-22.969-15.469-37.266-15.469-13.477 0-27.773 5.8594-37.266 15.469-9.1406 9.1406-16.055 24.141-15.469 37.266 0.58594 13.594 5.0391 27.773 15.469 37.266 10.195 9.4922 22.969 15.469 37.266 15.469z"/>
  <path d="m356.6 331.76c13.477 0 27.773-5.8594 37.266-15.469 9.1406-9.1406 16.055-24.141 15.469-37.266-0.58594-13.594-5.0391-27.773-15.469-37.266-10.312-9.4922-22.969-15.469-37.266-15.469-13.477 0-27.773 5.8594-37.266 15.469-9.1406 9.1406-16.055 24.141-15.469 37.266 0.58594 13.594 5.0391 27.773 15.469 37.266 10.195 9.4922 22.969 15.469 37.266 15.469z"/>
  <path d="m476.13 331.76c13.477 0 27.773-5.8594 37.266-15.469 9.1406-9.1406 16.055-24.141 15.469-37.266-0.58594-13.594-5.0391-27.773-15.469-37.266-10.312-9.4922-22.969-15.469-37.266-15.469-13.477 0-27.773 5.8594-37.266 15.469-9.1406 9.1406-16.055 24.141-15.469 37.266 0.58594 13.594 5.0391 27.773 15.469 37.266 10.195 9.4922 22.969 15.469 37.266 15.469z"/>
  <path d="m366.33 550.66c-35.859 37.734-71.602 75.586-107.46 113.32-5.0391 5.2734-10.078 10.664-15.117 15.938-20.039 21.094-20.039 53.438 0 74.531 35.859 37.734 71.602 75.586 107.46 113.32 5.0391 5.2734 10.078 10.664 15.117 15.938 9.1406 9.6094 24.141 15.469 37.266 15.469 12.891 0 28.359-5.7422 37.266-15.469 19.688-21.562 20.273-53.203 0-74.531-35.859-37.734-71.602-75.586-107.46-113.32-5.0391-5.2734-10.078-10.664-15.117-15.938v74.531c35.859-37.734 71.602-75.586 107.46-113.32 5.0391-5.2734 10.078-10.664 15.117-15.938 9.4922-9.9609 15.469-23.438 15.469-37.266 0-12.891-5.7422-28.359-15.469-37.266-10.078-9.2578-23.203-16.055-37.266-15.469-13.828 0.58594-27.539 5.1562-37.266 15.469z"/>
  <path d="m759.14 625.2c35.859 37.734 71.602 75.586 107.46 113.32 5.0391 5.2734 10.078 10.664 15.117 15.938v-74.531c-35.859 37.734-71.602 75.586-107.46 113.32-5.0391 5.2734-10.078 10.664-15.117 15.938-9.4922 9.9609-15.469 23.438-15.469 37.266 0 12.891 5.7422 28.359 15.469 37.266 10.078 9.2578 23.203 16.055 37.266 15.469 13.828-0.58594 27.539-5.1562 37.266-15.469 35.859-37.734 71.602-75.586 107.46-113.32 5.0391-5.2734 10.078-10.664 15.117-15.938 20.039-21.094 20.039-53.438 0-74.531-35.859-37.734-71.602-75.586-107.46-113.32-5.0391-5.2734-10.078-10.664-15.117-15.938-9.1406-9.6094-24.141-15.469-37.266-15.469-12.891 0-28.359 5.7422-37.266 15.469-19.805 21.562-20.273 53.203 0 74.531z"/>
  <path d="m623.79 524.65c-16.875 40.43-33.75 80.742-50.625 121.17-26.719 63.867-53.438 127.85-80.156 191.72-6.0938 14.766-12.305 29.414-18.398 44.18-4.9219 11.719-0.82031 30.234 5.2734 40.664 6.4453 10.898 18.984 21.328 31.523 24.258 13.477 3.0469 28.594 2.4609 40.664-5.2734 3.5156-2.6953 7.1484-5.5078 10.664-8.2031 6.5625-6.5625 11.016-14.297 13.594-23.32 16.875-40.43 33.75-80.742 50.625-121.17 26.719-63.867 53.438-127.85 80.156-191.72 6.0938-14.766 12.305-29.414 18.398-44.18 4.9219-11.719 0.82031-30.234-5.2734-40.664-6.4453-10.898-18.984-21.328-31.523-24.258-13.477-3.0469-28.594-2.4609-40.664 5.2734-3.5156 2.6953-7.1484 5.5078-10.664 8.2031-6.5625 6.5625-11.133 14.414-13.594 23.32z"/>
 </g>
</svg>
