<svg id="visual" viewBox="0 0 900 600" width="900" height="600" xmlns="http://www.w3.org/2000/svg" xmlns:xlink="http://www.w3.org/1999/xlink" version="1.1"><rect x="0" y="0" width="900" height="600" fill="#F5F5F5"></rect><path d="M0 501L900 443L900 0L0 0Z" fill="#c84630"></path><path d="M0 304L900 495L900 0L0 0Z" fill="#c84630"></path><path d="M0 400L900 358L900 0L0 0Z" fill="#c84630"></path><path d="M0 410L900 303L900 0L0 0Z" fill="#c84630"></path><path d="M0 317L900 314L900 0L0 0Z" fill="#c84630"></path><path d="M0 182L900 275L900 0L0 0Z" fill="#c84630"></path><path d="M0 276L900 183L900 0L0 0Z" fill="#c84630"></path><path d="M0 220L900 131L900 0L0 0Z" fill="#c84630"></path><path d="M0 199L900 173L900 0L0 0Z" fill="#c84630"></path><path d="M0 147L900 130L900 0L0 0Z" fill="#c84630"></path><path d="M0 47L900 91L900 0L0 0Z" fill="#c84630"></path><path d="M0 23L900 76L900 0L0 0Z" fill="#c84630"></path></svg>